name Walk7.mot
datacolumns 19
datarows 12
range 3.34300000 3.35400000
endheader

                time	   L_ground_force_vx	   L_ground_force_vy	   L_ground_force_vz	   L_ground_force_px	   L_ground_force_py	   L_ground_force_pz	   R_ground_force_vx	   R_ground_force_vy	   R_ground_force_vz	   R_ground_force_px	   R_ground_force_py	   R_ground_force_pz	   L_ground_torque_x	   L_ground_torque_y	   L_ground_torque_z	   R_ground_torque_x	   R_ground_torque_y	   R_ground_torque_z	
          3.34300000	         -8.53952659	        743.77965177	        -57.63558923	          0.21020569	          0.00000000	          0.15476300	          0.00000000	          0.00000000	          0.00000000	          0.00000000	          0.00000000	          0.00000000	          0.00000000	         10.02778123	          0.00000000	          0.00000000	          0.00000000	          0.00000000	
          3.34400000	         -8.25168623	        742.97139137	        -57.51594393	          0.21044952	          0.00000000	          0.15481860	          0.00000000	          0.00000000	          0.00000000	          0.00000000	          0.00000000	          0.00000000	          0.00000000	          9.95295893	          0.00000000	          0.00000000	          0.00000000	          0.00000000	
          3.34500000	         -8.00257565	        742.08740067	        -57.41017534	          0.21068710	          0.00000000	          0.15486094	          0.00000000	          0.00000000	          0.00000000	          0.00000000	          0.00000000	          0.00000000	          0.00000000	          9.87807517	          0.00000000	          0.00000000	          0.00000000	          0.00000000	
          3.34600000	         -7.78079977	        741.14250540	        -57.32320827	          0.21091102	          0.00000000	          0.15490977	          0.00000000	          0.00000000	          0.00000000	          0.00000000	          0.00000000	          0.00000000	          0.00000000	          9.80679334	          0.00000000	          0.00000000	          0.00000000	          0.00000000	
          3.34700000	         -7.57393515	        740.22645249	        -57.26489354	          0.21116204	          0.00000000	          0.15498626	          0.00000000	          0.00000000	          0.00000000	          0.00000000	          0.00000000	          0.00000000	          0.00000000	          9.74205940	          0.00000000	          0.00000000	          0.00000000	          0.00000000	
          3.34800000	         -7.38131587	        739.44302881	        -57.24528118	          0.21148114	          0.00000000	          0.15510996	          0.00000000	          0.00000000	          0.00000000	          0.00000000	          0.00000000	          0.00000000	          0.00000000	          9.68362120	          0.00000000	          0.00000000	          0.00000000	          0.00000000	
          3.34900000	         -7.20167158	        738.80189708	        -57.26162338	          0.21185493	          0.00000000	          0.15527914	          0.00000000	          0.00000000	          0.00000000	          0.00000000	          0.00000000	          0.00000000	          0.00000000	          9.62594734	          0.00000000	          0.00000000	          0.00000000	          0.00000000	
          3.35000000	         -7.02379102	        738.20166296	        -57.29659100	          0.21222677	          0.00000000	          0.15546043	          0.00000000	          0.00000000	          0.00000000	          0.00000000	          0.00000000	          0.00000000	          0.00000000	          9.56032149	          0.00000000	          0.00000000	          0.00000000	          0.00000000	
          3.35100000	         -6.83451279	        737.52138795	        -57.33154526	          0.21255021	          0.00000000	          0.15561188	          0.00000000	          0.00000000	          0.00000000	          0.00000000	          0.00000000	          0.00000000	          0.00000000	          9.48285311	          0.00000000	          0.00000000	          0.00000000	          0.00000000	
          3.35200000	         -6.62566306	        736.70661080	        -57.35755410	          0.21280641	          0.00000000	          0.15571282	          0.00000000	          0.00000000	          0.00000000	          0.00000000	          0.00000000	          0.00000000	          0.00000000	          9.40008178	          0.00000000	          0.00000000	          0.00000000	          0.00000000	
          3.35300000	         -6.39342251	        735.78257792	        -57.37595680	          0.21299998	          0.00000000	          0.15577345	          0.00000000	          0.00000000	          0.00000000	          0.00000000	          0.00000000	          0.00000000	          0.00000000	          9.32275161	          0.00000000	          0.00000000	          0.00000000	          0.00000000	
          3.35400000	         -6.13847574	        734.82142252	        -57.39411595	          0.21317216	          0.00000000	          0.15582766	          0.00000000	          0.00000000	          0.00000000	          0.00000000	          0.00000000	          0.00000000	          0.00000000	          9.25515771	          0.00000000	          0.00000000	          0.00000000	          0.00000000	
